<svg width="45" height="55" viewBox="0 0 45 55" fill="none" xmlns="http://www.w3.org/2000/svg">
<path fill-rule="evenodd" clip-rule="evenodd" d="M7.5621 40.9199H15.4076C15.924 40.9199 16.3416 41.324 16.3416 41.8238V49.4165C16.3416 49.9163 15.924 50.3204 15.4076 50.3204H7.5621C7.04566 50.3204 6.62811 49.9163 6.62811 49.4165V41.8238C6.62811 41.324 7.04566 40.9199 7.5621 40.9199ZM38.7573 30.3178H24.3739C23.8574 30.3178 23.4399 29.9137 23.4399 29.4139C23.4399 28.9141 23.8574 28.51 24.3739 28.51H38.7573C39.2737 28.51 39.6913 28.9141 39.6913 29.4139C39.6913 29.9137 39.2737 30.3178 38.7573 30.3178ZM16.924 11.9209L9.58391 19.0245C9.52897 19.0883 9.45205 19.1414 9.37513 19.184C8.92462 19.4286 8.36423 19.2903 8.10052 18.8543L5.88092 15.1324C5.6282 14.7071 5.77104 14.1541 6.22155 13.8989C6.66108 13.6543 7.23246 13.7925 7.49617 14.2285L9.11142 16.9402L15.6054 10.6555C15.968 10.3046 16.5613 10.3046 16.924 10.6555C17.2866 11.0064 17.2866 11.5806 16.924 11.9316V11.9209ZM12.1331 0.5H1.48568C0.969244 0.5 0.551697 0.904093 0.551697 1.40389V54.0423C0.551697 54.5421 0.969244 54.9462 1.48568 54.9462H43.9656C44.4821 54.9462 44.8996 54.5421 44.8996 54.0423V1.40389C44.8996 0.904093 44.4821 0.5 43.9656 0.5H33.3182V5.42355C33.3182 5.92335 32.9006 6.32744 32.3842 6.32744H13.0671C12.5507 6.32744 12.1331 5.92335 12.1331 5.42355V0.5ZM23.4399 45.6201C23.4399 45.1203 23.8574 44.7163 24.3739 44.7163H38.7573C39.2737 44.7163 39.6913 45.1203 39.6913 45.6201C39.6913 46.1199 39.2737 46.524 38.7573 46.524H24.3739C23.8574 46.524 23.4399 46.1199 23.4399 45.6201ZM16.924 26.5002L9.58391 33.6037C9.52897 33.6675 9.45205 33.7207 9.37513 33.7632C8.92462 34.0078 8.36423 33.8696 8.10052 33.4336L5.88092 29.7117C5.6282 29.2863 5.77104 28.7333 6.22155 28.4781C6.66108 28.2335 7.23246 28.3718 7.49617 28.8078L9.11142 31.5194L15.6054 25.2347C15.968 24.8838 16.5613 24.8838 16.924 25.2347C17.2866 25.5857 17.2866 26.1599 16.924 26.5108V26.5002ZM24.3739 15.7386C23.8574 15.7386 23.4399 15.3345 23.4399 14.8347C23.4399 14.3349 23.8574 13.9308 24.3739 13.9308H38.7573C39.2737 13.9308 39.6913 14.3349 39.6913 14.8347C39.6913 15.3345 39.2737 15.7386 38.7573 15.7386H24.3739Z" fill="#0B7572"/>
<path fill-rule="evenodd" clip-rule="evenodd" d="M32.3841 0.531982H13.067V5.42363H32.3841V0.531982Z" fill="#0B7572"/>
</svg>
