<svg width="51" height="50" viewBox="0 0 51 50" fill="none" xmlns="http://www.w3.org/2000/svg">
<path fill-rule="evenodd" clip-rule="evenodd" d="M11.1208 11.293C14.7447 7.78591 19.7556 5.61169 25.2842 5.61169C30.8129 5.61169 35.8238 7.78591 39.4477 11.293C43.0715 14.8001 45.3182 19.6496 45.3182 25C45.3182 30.3505 43.0715 35.2 39.4477 38.7071C35.8238 42.2142 30.8129 44.3884 25.2842 44.3884C19.7556 44.3884 14.7447 42.2142 11.1208 38.7071C7.49693 35.2 5.25032 30.3505 5.25032 25C5.25032 19.6496 7.49693 14.8001 11.1208 11.293ZM50.29 25C50.29 18.3167 47.4866 12.2667 42.9641 7.88989C38.4416 3.5131 32.1901 0.800049 25.2842 0.800049C18.3784 0.800049 12.1269 3.5131 7.60438 7.88989C3.08185 12.2667 0.278473 18.3167 0.278473 25C0.278473 31.6834 3.08185 37.7334 7.60438 42.1102C12.1269 46.487 18.3784 49.2001 25.2842 49.2001C32.1901 49.2001 38.4416 46.487 42.9641 42.1102C47.4866 37.7334 50.29 31.6834 50.29 25Z" fill="#0B7572"/>
<path fill-rule="evenodd" clip-rule="evenodd" d="M19.5015 19.4887C19.5015 17.7683 20.1266 16.3787 21.3867 15.3199C22.2267 14.6015 23.477 14.1666 25.1278 14.0059V12.8526H26.6027V14.0059C28.0484 14.1383 29.201 14.5542 30.0508 15.2348C31.1448 16.1045 31.7993 17.3145 32.0141 18.8459L29.4354 19.224C29.2889 18.2787 28.9861 17.5508 28.5173 17.0498C28.0582 16.5488 27.4135 16.2085 26.6027 16.0478V23.0053C27.853 23.3078 28.6931 23.5536 29.0936 23.7237C29.8652 24.0546 30.5001 24.4516 30.9885 24.9243C31.4769 25.3969 31.8579 25.9641 32.1216 26.6164C32.3853 27.2687 32.5221 27.9776 32.5221 28.7339C32.5221 30.4071 31.9653 31.7967 30.8713 32.9216C29.7773 34.0465 28.3512 34.6421 26.6027 34.7177V37.1566H25.1278V34.7461C23.8775 34.5948 22.8714 34.3207 22.09 33.9331C21.3086 33.5455 20.6346 32.9122 20.068 32.0519C19.5015 31.1822 19.1694 30.1235 19.0815 28.8757L21.5918 28.4219C21.7872 29.717 22.1291 30.6718 22.6175 31.2768C23.3207 32.137 24.1608 32.6097 25.1376 32.7137V25.0377C24.1119 24.8487 23.0668 24.4611 21.9923 23.8844C21.2011 23.4496 20.5857 22.8635 20.1559 22.0978C19.7262 21.3415 19.5113 20.4813 19.5113 19.5076L19.5015 19.4887ZM43.6477 24.9999C43.6477 20.0937 41.5964 15.6508 38.2656 12.4367C34.9445 9.22264 30.3536 7.22803 25.2841 7.22803C20.2146 7.22803 15.6237 9.21318 12.3026 12.4367C8.98149 15.6508 6.92047 20.0937 6.92047 24.9999C6.92047 29.9061 8.97173 34.349 12.3026 37.5631C15.6237 40.7772 20.2146 42.7718 25.2841 42.7718C30.3536 42.7718 34.9445 40.7866 38.2656 37.5631C41.5867 34.349 43.6477 29.9061 43.6477 24.9999Z" fill="#0B7572"/>
<path fill-rule="evenodd" clip-rule="evenodd" d="M25.128 22.6934V16.0195C24.161 16.1613 23.3894 16.5395 22.8326 17.1445C22.2758 17.7495 21.9926 18.4679 21.9926 19.3092C21.9926 20.1316 22.227 20.8217 22.7056 21.37C23.1842 21.9277 23.9852 22.372 25.1183 22.6934H25.128Z" fill="#0B7572"/>
<path fill-rule="evenodd" clip-rule="evenodd" d="M29.9435 28.8851C29.9435 28.0154 29.7189 27.3064 29.2695 26.777C28.8202 26.2477 27.9216 25.7655 26.5834 25.3496V32.6947C27.5504 32.5813 28.3514 32.1748 28.9863 31.4752C29.6212 30.7757 29.9338 29.9155 29.9338 28.8851H29.9435Z" fill="#0B7572"/>
</svg>
