<svg width="50" height="55" viewBox="0 0 50 55" fill="none" xmlns="http://www.w3.org/2000/svg">
<path fill-rule="evenodd" clip-rule="evenodd" d="M5.58084 15.9121C2.58675 19.9314 0.817993 24.9001 0.817993 30.2802C0.817993 35.6603 2.58675 40.6289 5.58084 44.6482C8.29791 43.6566 11.324 42.8654 14.5738 42.3168C14.9574 42.2535 15.341 42.1902 15.7245 42.1375C14.9787 38.5929 14.5631 34.5631 14.5631 30.2907C14.5631 28.318 14.6484 26.398 14.8189 24.5519L13.9984 25.8706L8.1807 16.7877C7.28567 16.524 6.41194 16.2286 5.58084 15.9227V15.9121Z" fill="#0B7572"/>
<path fill-rule="evenodd" clip-rule="evenodd" d="M14.8405 43.8889C11.889 44.3847 9.12935 45.0915 6.6467 45.9671C7.28601 46.7161 7.96794 47.4229 8.70314 48.077C12.0915 51.1679 16.3535 53.3199 21.0844 54.1217C19.7206 52.7608 18.5059 50.7565 17.5149 48.2457C16.9715 46.8743 16.4921 45.3447 16.0765 43.6885C15.661 43.7518 15.2454 43.8151 14.8405 43.8889Z" fill="#0B7572"/>
<path fill-rule="evenodd" clip-rule="evenodd" d="M17.7061 43.4775C18.0897 44.9966 18.5372 46.3996 19.038 47.6655C20.7002 51.8747 22.9058 54.4803 25.2712 54.4803C27.6367 54.4803 29.8423 51.8747 31.5045 47.6655C32.0053 46.3996 32.4528 44.9966 32.8364 43.4775C30.4177 43.1927 27.8818 43.0344 25.2819 43.0344C22.6714 43.0344 20.1461 43.1821 17.7274 43.4775H17.7061Z" fill="#0B7572"/>
<path fill-rule="evenodd" clip-rule="evenodd" d="M16.1932 30.2703C16.1932 34.4794 16.6088 38.4459 17.344 41.8955C19.8906 41.5896 22.5437 41.4208 25.2714 41.4208C27.9991 41.4208 30.6523 41.5896 33.1988 41.8955C33.9341 38.4354 34.3496 34.4794 34.3496 30.2703C34.3496 26.0611 33.9341 22.0946 33.1988 18.645C30.6523 18.9509 27.9991 19.1197 25.2714 19.1197C22.9166 19.1197 20.6151 18.9931 18.3989 18.7611L17.4079 20.354L16.8645 21.2296C16.4277 24.0251 16.1932 27.0739 16.1932 30.2808V30.2703Z" fill="#0B7572"/>
<path fill-rule="evenodd" clip-rule="evenodd" d="M19.3364 17.2417C21.2543 17.4211 23.2362 17.5055 25.2607 17.5055C27.8712 17.5055 30.3964 17.3578 32.8152 17.0624C32.4316 15.5433 31.9841 14.1403 31.4833 12.8744C29.8211 8.66523 27.6155 6.05957 25.25 6.05957C24.5468 6.05957 23.8542 6.29165 23.1829 6.73472C23.2149 6.93516 23.2362 7.14614 23.2468 7.35713C23.2468 7.36767 23.2468 7.38877 23.2468 7.39932C23.2468 7.42042 23.2468 7.45207 23.2575 7.47317C23.2682 7.57866 23.2788 7.68415 23.2788 7.78964C23.2788 7.80019 23.2788 7.80019 23.2788 7.82129C23.2788 7.94788 23.2788 8.06392 23.2788 8.19051C23.2788 10.0472 22.501 12.0937 21.5207 13.6656L19.3151 17.2312L19.3364 17.2417Z" fill="#0B7572"/>
<path fill-rule="evenodd" clip-rule="evenodd" d="M33.0073 12.2939C33.5507 13.6653 34.0302 15.195 34.4458 16.8512C34.8613 16.7879 35.2769 16.7246 35.6818 16.6508C38.6333 16.155 41.3929 15.4482 43.8756 14.5726C43.2363 13.8236 42.5437 13.1168 41.8191 12.4522C38.4415 9.3718 34.1687 7.21976 29.4485 6.40747C30.8124 7.76832 32.0271 9.77267 33.018 12.2834L33.0073 12.2939Z" fill="#0B7572"/>
<path fill-rule="evenodd" clip-rule="evenodd" d="M34.7976 18.4232C35.5435 21.9677 35.959 25.9975 35.959 30.27C35.959 34.5424 35.5435 38.5722 34.7976 42.1167C35.1812 42.1695 35.5648 42.2328 35.9484 42.2961C39.1982 42.8446 42.2243 43.6358 44.9413 44.6275C47.9354 40.6082 49.7042 35.6395 49.7042 30.2594C49.7042 24.8793 47.9354 19.9106 44.9413 15.8914C42.2243 16.883 39.1982 17.6742 35.9484 18.2227C35.5648 18.286 35.1812 18.3493 34.7976 18.4021V18.4232Z" fill="#0B7572"/>
<path fill-rule="evenodd" clip-rule="evenodd" d="M34.4458 43.699C34.0409 45.3553 33.5508 46.8849 33.0074 48.2563C32.0165 50.7565 30.8124 52.7714 29.4379 54.1322C34.1688 53.3199 38.4309 51.1784 41.8085 48.0875C42.5331 47.4229 43.2257 46.7161 43.865 45.9671C41.3823 45.0915 38.6227 44.3953 35.6712 43.8889C35.2663 43.8151 34.8507 43.7518 34.4352 43.6885L34.4458 43.699Z" fill="#0B7572"/>
<path fill-rule="evenodd" clip-rule="evenodd" d="M16.4489 9.4141C15.7883 10.0681 14.8719 10.4796 13.8597 10.4796C12.8474 10.4796 11.9311 10.0787 11.2705 9.4141C10.6099 8.76004 10.1943 7.85281 10.1943 6.85063C10.1943 5.84846 10.5992 4.94122 11.2705 4.28717C11.9311 3.63312 12.8474 3.2217 13.8597 3.2217C14.8719 3.2217 15.7883 3.62257 16.4489 4.28717C17.1095 4.94122 17.5251 5.84846 17.5251 6.85063C17.5251 7.85281 17.1202 8.76004 16.4489 9.4141ZM16.0866 19.4148C16.0653 19.4464 16.044 19.4781 16.0227 19.5097L16.0866 19.4148ZM21.6486 7.50469C21.6486 7.51524 21.6486 7.52578 21.6486 7.52578C21.6486 7.51524 21.6486 7.50469 21.6486 7.50469ZM8.35098 2.73644C6.93384 4.13948 6.06012 6.06999 6.06012 8.20094C6.06012 9.49849 6.77401 11.3024 7.81822 13.254C7.82887 13.2646 7.83953 13.2751 7.86084 13.2857C7.91411 13.3384 7.96739 13.4017 7.99936 13.465L8.7026 14.5621C8.71325 14.5727 8.71325 14.5832 8.72391 14.5938L13.9982 22.8222L15.1276 21.0077C15.149 20.976 15.1703 20.9339 15.1916 20.9022L16.044 19.5308L16.1079 19.4253L20.1888 12.8426C21.0945 11.0387 21.7019 9.40355 21.7019 8.21148C21.7019 8.07434 21.7019 7.9794 21.7019 7.90556C21.7019 7.89501 21.7019 7.88446 21.7019 7.88446C21.7019 7.82116 21.6912 7.73677 21.6806 7.63128C21.6806 7.61018 21.6806 7.58908 21.6699 7.55743C21.6699 7.54688 21.6699 7.53633 21.6699 7.53633C21.4994 5.67967 20.6683 4.01289 19.411 2.76808C17.9939 1.36504 16.044 0.5 13.8917 0.5C11.7393 0.5 9.78942 1.36504 8.37229 2.76808L8.35098 2.73644Z" fill="#0B7572"/>
</svg>
